Coordinates
version=1
nRows=10
nColumns=63
inDegrees=yes

Units are S.I. units (second, meters, Newtons, ...)
If the header above contains a line with 'inDegrees', this indicates whether rotational values are in degrees (yes) or radians (no).

endheader
time	pelvis_tilt	pelvis_list	pelvis_rotation	pelvis_tx	pelvis_ty	pelvis_tz	hip_flexion_r	hip_adduction_r	hip_rotation_r	knee_angle_r	knee_angle_r_beta	ankle_angle_r	subtalar_angle_r	mtp_angle_r	hip_flexion_l	hip_adduction_l	hip_rotation_l	knee_angle_l	knee_angle_l_beta	ankle_angle_l	subtalar_angle_l	mtp_angle_l	L5_S1_Flex_Ext	L5_S1_Lat_Bending	L5_S1_axial_rotation	L4_L5_Flex_Ext	L4_L5_Lat_Bending	L4_L5_axial_rotation	L3_L4_Flex_Ext	L3_L4_Lat_Bending	L3_L4_axial_rotation	L2_L3_Flex_Ext	L2_L3_Lat_Bending	L2_L3_axial_rotation	L1_L2_Flex_Ext	L1_L2_Lat_Bending	L1_L2_axial_rotation	L1_T12_Flex_Ext	L1_T12_Lat_Bending	L1_T12_axial_rotation	Abs_r3	Abs_r2	Abs_r1	Abs_t1	Abs_t2	neck_flexion	neck_bending	neck_rotation	arm_flex_r	arm_add_r	arm_rot_r	elbow_flex_r	pro_sup_r	wrist_flex_r	wrist_dev_r	arm_flex_l	arm_add_l	arm_rot_l	elbow_flex_l	pro_sup_l	wrist_flex_l	wrist_dev_l
      4.40000000	     -1.04831328	    -21.04133388	     92.30238414	      0.25205256	      0.77362246	      0.69688027	     19.18442504	     -0.33055204	    -21.73273805	      9.45514288	      0.16502337	     25.81943657	     17.80772045	      0.00000000	     15.63846599	     -1.65256374	     13.96740466	      0.86757698	      0.01514207	      8.95486488	    -17.69279425	      0.00000000	     -0.15889838	      0.75119047	     -1.18163608	     -0.29509017	      0.99908333	     -1.25548834	     -0.26105414	      1.82644451	     -1.25548834	     -0.18160495	      1.82644451	     -1.03393157	     -0.14755303	      1.53182761	     -0.96007932	     -0.09079453	      1.16359404	     -0.88622706	     -1.13499521	      8.49761686	     -6.57190541	      0.00000000	      0.00000000	     13.55347273	     -0.12319972	      5.32547579	     37.84205268	      4.21186154	      4.70462003	     85.95736282	     88.39665554	    -15.29689313	      3.51071432	     43.59306133	     -2.31890327	     10.70318688	     81.82601766	     86.33198863	     -9.67050126	    -10.51585627
      4.41666667	     -0.89415169	    -20.77923599	     92.77901905	      0.25170089	      0.77394346	      0.69563792	     18.63281037	     -0.27936194	    -22.53614635	      9.26345382	      0.16167777	     25.67620878	     17.89713551	      0.00000000	     15.25875786	     -1.73850029	     14.57063555	      0.80118634	      0.01398334	      8.67699625	    -17.70080023	      0.00000000	     -0.17549729	      0.78055246	     -1.17705223	     -0.32591601	      1.03813477	     -1.25061799	     -0.28832449	      1.89783524	     -1.25061799	     -0.20057585	      1.89783524	     -1.02992070	     -0.16296678	      1.59170257	     -0.95635494	     -0.10027915	      1.20907576	     -0.88278917	     -1.25355957	      8.82976550	     -6.54641139	      0.00000000	      0.00000000	     13.38913662	     -0.77151855	      4.94581426	     38.03890811	      5.34216298	      5.08930205	     86.18923912	     88.37371923	    -14.04102145	      3.94819740	     43.54425236	     -3.10203713	     15.60420670	     83.23137237	     86.44885204	     -8.54593623	     -4.62147984
      4.43333333	     -0.83551588	    -20.62562140	     93.10128081	      0.25136370	      0.77432926	      0.69443057	     18.24393477	     -0.30657249	    -23.13860706	      9.14442979	      0.15960041	     25.44902051	     18.00973547	      0.00000000	     15.00208406	     -1.74520287	     15.01847415	      0.74952410	      0.01308166	      8.44641996	    -17.76396979	      0.00000000	     -0.17320657	      0.80111959	     -1.20581737	     -0.32166192	      1.06548905	     -1.28118095	     -0.28456107	      1.94784216	     -1.28118095	     -0.19795779	      1.94784216	     -1.05509020	     -0.16083962	      1.63364306	     -0.97972661	     -0.09897023	      1.24093424	     -0.90436302	     -1.23719721	      9.06242498	     -6.70639444	      0.00000000	      0.00000000	     12.95494651	     -1.11481128	      5.03623897	     37.88875281	      6.55797323	      4.85913812	     86.35838066	     88.24639082	    -12.98716064	      4.37140185	     42.77345747	     -4.08198252	     18.92410388	     85.46069350	     85.46058210	     -7.38516013	      1.88946620
      4.45000000	     -0.97085312	    -20.42934350	     93.07880340	      0.25156702	      0.77485835	      0.69321208	     17.84532812	     -0.40005604	    -23.41271776	      9.02617782	      0.15753652	     25.37634133	     18.07862892	      0.00000000	     14.68377993	     -1.64618185	     15.07823938	      0.72510630	      0.01265549	      8.24527799	    -17.79754161	      0.00000000	     -0.17532652	      0.79714346	     -1.22907410	     -0.32559887	      1.06020080	     -1.30589123	     -0.28804393	      1.93817460	     -1.30589123	     -0.20038068	      1.93817460	     -1.07543984	     -0.16280820	      1.62553494	     -0.99862270	     -0.10018157	      1.23477522	     -0.92180557	     -1.25233977	      9.01744623	     -6.83574141	      0.00000000	      0.00000000	     12.34334074	     -1.06480996	      5.33627279	     37.30261035	      7.77803316	      4.26228490	     86.54514432	     87.97719530	    -12.51364709	      4.36060768	     41.99979020	     -5.05559109	     20.76661467	     87.26393341	     83.69820753	     -6.33424919	      7.21390081
      4.46666667	     -1.28455118	    -20.26300916	     92.74361330	      0.25198717	      0.77545379	      0.69234904	     17.58003016	     -0.61721410	    -23.18299927	      8.99802769	      0.15704521	     25.30419628	     18.15704319	      0.00000000	     14.38745308	     -1.40973473	     14.64725327	      0.72030652	      0.01257172	      8.08075781	    -17.81821309	      0.00000000	     -0.17485714	      0.77269282	     -1.23585786	     -0.32472719	      1.02768145	     -1.31309897	     -0.28727279	      1.87872533	     -1.31309897	     -0.19984422	      1.87872533	     -1.08137562	     -0.16237234	      1.57567520	     -1.00413451	     -0.09991337	      1.19690118	     -0.92689339	     -1.24898706	      8.74085573	     -6.87347063	      0.00000000	      0.00000000	     11.54183577	     -0.72855412	      5.71044409	     36.38216431	      8.86386726	      3.51605778	     86.78930423	     87.59753522	    -12.45149086	      3.91557405	     41.63945318	     -5.81901607	     21.41160269	     88.05040583	     82.29322081	     -5.57824787	     10.36595217
      4.48333333	     -1.39841427	    -20.07247335	     92.55029097	      0.25175944	      0.77608083	      0.69176900	     17.37457381	     -0.71457956	    -23.03733476	      9.07711181	      0.15842549	     25.23585846	     18.21737571	      0.00000000	     14.11559624	     -1.30262971	     14.23553644	      0.78511556	      0.01370285	      7.85928326	    -17.83685164	      0.00000000	     -0.17680037	      0.77920414	     -1.25843910	     -0.32833596	      1.03634150	     -1.33709154	     -0.29046532	      1.89455694	     -1.33709154	     -0.20206514	      1.89455694	     -1.10113421	     -0.16417682	      1.58895308	     -1.02248177	     -0.10102373	      1.20698721	     -0.94382932	     -1.26286733	      8.81451303	     -6.99906073	      0.00000000	      0.00000000	     10.56949977	     -0.71507409	      5.97277291	     35.50226377	      9.39490887	      2.98979930	     87.04272208	     87.35392668	    -12.59158038	      3.61129303	     41.67305403	     -6.12983908	     21.38874579	     87.78442482	     82.18199115	     -5.48629283	     10.80068879
      4.50000000	     -2.01943896	    -20.10503989	     91.52753855	      0.25310315	      0.77616775	      0.69172586	     17.51329206	     -1.04961274	    -21.95541095	      9.14439757	      0.15959985	     25.35392678	     18.30856918	      0.00000000	     13.99164976	     -0.89782578	     12.89879120	      0.83302432	      0.01453902	      7.64778468	    -17.66201249	      0.00000000	     -0.15230153	      0.71938176	     -1.14013702	     -0.28283918	      0.95677775	     -1.21139558	     -0.25021619	      1.74910482	     -1.21139558	     -0.17406542	      1.74910482	     -0.99761989	     -0.14142720	      1.46696329	     -0.92636133	     -0.08702510	      1.11432235	     -0.85510276	     -1.08787463	      8.13779038	     -6.34110005	      0.00000000	      0.00000000	      9.61576523	     -0.21203085	      6.17998724	     34.41269099	     10.54406772	      1.94088200	     86.89988317	     86.83442192	    -12.51160887	      1.92615945	     42.16803360	     -6.46531496	     21.36854743	     87.10741823	     82.55786896	     -5.12898571	     11.37853766
      4.51666667	     -2.39697468	    -20.12594584	     90.46558736	      0.25354751	      0.77628503	      0.69168483	     17.75135302	     -1.21533441	    -20.77784831	      9.40605611	      0.16416665	     25.35090195	     18.27958858	      0.00000000	     13.88590911	     -0.67389369	     11.25224558	      0.93509966	      0.01632057	      7.49451557	    -17.33917469	      0.00000000	     -0.13506019	      0.70210691	     -0.95342770	     -0.25082029	      0.93380220	     -1.01301693	     -0.22189039	      1.70710275	     -1.01301693	     -0.15436030	      1.70710275	     -0.83424924	     -0.12541690	      1.43173642	     -0.77466001	     -0.07717340	      1.08756361	     -0.71507078	     -0.96472146	      7.94237384	     -5.30267884	      0.00000000	      0.00000000	      8.67501162	     -0.31957291	      5.87099594	     33.42036208	     10.88672270	      1.37626278	     86.89417948	     86.14759477	    -12.28390104	      0.42218349	     42.71234031	     -6.25571294	     21.52869888	     86.02756402	     84.25946059	     -4.88314556	     11.01381807
      4.53333333	     -2.54248897	    -20.14968685	     90.25991221	      0.25273189	      0.77639205	      0.69132910	     17.77789107	     -1.37467171	    -20.51698241	      9.45179191	      0.16496489	     25.31892720	     18.29465483	      0.00000000	     13.88441815	     -0.46804660	     10.68399924	      1.08041853	      0.01885686	      7.31459869	    -17.25101007	      0.00000000	     -0.11377446	      0.72351084	     -0.88719054	     -0.21129055	      0.96226941	     -0.94263995	     -0.18692006	      1.75914425	     -0.94263995	     -0.13003283	      1.75914425	     -0.77629172	     -0.10565096	      1.47538330	     -0.72084231	     -0.06501073	      1.12071829	     -0.66539290	     -0.81267958	      8.18449930	     -4.93428762	      0.00000000	      0.00000000	      7.77208463	     -0.73078862	      6.04381191	     32.09818371	     11.05483833	      1.02418202	     87.43509915	     85.52760564	    -12.34666768	      0.17934572	     43.08386662	     -5.99212532	     21.99398916	     85.18124618	     85.10419204	     -4.75458976	     11.37632294
      4.55000000	     -2.78302585	    -20.27101076	     89.38103745	      0.25258058	      0.77633191	      0.69071011	     17.97731159	     -1.45751289	    -19.70889175	      9.57806420	      0.16716876	     25.15611860	     18.30475798	      0.00000000	     13.93902427	     -0.31948852	      9.45149300	      1.22621600	      0.02140151	      7.34689613	    -17.06608611	      0.00000000	     -0.08925347	      0.72241031	     -0.60495256	     -0.16575262	      0.96080572	     -0.64276209	     -0.14663453	      1.75646844	     -0.64276209	     -0.10200779	      1.75646844	     -0.52933349	     -0.08288077	      1.47313911	     -0.49152395	     -0.05099943	      1.11901358	     -0.45371442	     -0.63752863	      8.17204995	     -3.36456464	      0.00000000	      0.00000000	      7.27631403	     -0.98790208	      4.79732892	     30.04280788	     10.65759006	      0.59474578	     89.06328027	     82.76467310	    -12.59056346	      0.45259883	     43.49137358	     -5.22164536	     22.95220191	     84.33738442	     87.02692391	     -3.92750727	     12.65574594
